<?xml version="1.0" standalone="no"?>
<!DOCTYPE svg PUBLIC "-//W3C//DTD SVG 20010904//EN"
 "http://www.w3.org/TR/2001/REC-SVG-20010904/DTD/svg10.dtd">
<svg version="1.0" xmlns="http://www.w3.org/2000/svg"
 width="2560.000000pt" height="595.000000pt" viewBox="0 0 2560.000000 595.000000"
 preserveAspectRatio="xMidYMid meet">

<g transform="translate(0.000000,595.000000) scale(0.100000,-0.100000)"
fill="#000000" stroke="none">
<path d="M16545 5934 c-22 -9 -111 -31 -198 -50 -87 -19 -191 -46 -230 -60
-40 -14 -110 -39 -156 -55 -248 -88 -388 -193 -688 -516 -162 -176 -204 -238
-349 -528 -64 -126 -131 -255 -149 -285 -20 -34 -39 -86 -49 -135 -22 -100
-41 -162 -76 -245 -32 -73 -79 -303 -107 -515 -26 -201 -26 -724 0 -910 93
-657 346 -1175 775 -1586 128 -123 252 -218 487 -374 472 -313 911 -513 1395
-635 l162 -40 498 0 c486 0 502 1 647 25 521 88 945 286 1277 596 112 105 395
416 480 529 252 334 425 741 495 1165 34 206 44 362 38 599 -9 330 -41 523
-129 776 -36 103 -284 697 -325 777 -27 55 -197 275 -296 384 -141 156 -354
342 -465 406 -26 15 -119 75 -207 134 -210 140 -303 185 -420 205 -22 3 -92
25 -156 49 -502 186 -1115 251 -1736 184 l-111 -12 -31 35 c-51 59 -106 76
-276 92 -41 3 -73 0 -100 -10z m180 -486 c48 -82 70 -93 178 -92 62 1 129 10
207 28 251 59 246 58 405 52 593 -23 1185 -185 1620 -443 430 -255 736 -590
959 -1053 103 -215 171 -434 217 -701 30 -180 38 -517 14 -699 -32 -256 -108
-501 -216 -695 -164 -297 -576 -772 -847 -979 -262 -199 -516 -319 -762 -361
-52 -9 -151 -27 -220 -40 -206 -39 -306 -49 -500 -48 -326 0 -463 30 -813 180
-261 111 -536 243 -697 333 -572 323 -937 694 -1121 1139 -99 239 -151 421
-186 651 -27 174 -24 557 5 745 69 447 226 854 471 1222 232 348 425 531 694
658 151 72 429 153 527 154 32 0 38 -4 65 -51z"/>
<path d="M16081 4948 c-64 -31 -134 -101 -169 -166 -45 -84 -65 -177 -66 -312
-1 -102 2 -120 22 -157 26 -51 47 -58 152 -57 135 2 243 65 290 167 50 113 64
174 64 287 0 155 -21 189 -144 233 -76 27 -104 28 -149 5z"/>
<path d="M19246 4305 c-92 -33 -135 -91 -182 -250 -30 -103 -38 -260 -16 -332
11 -36 20 -45 65 -67 28 -14 73 -28 100 -32 43 -6 53 -3 120 37 94 56 171 129
202 193 95 194 -25 467 -204 466 -25 -1 -63 -7 -85 -15z"/>
<path d="M17188 1250 c-21 -4 -47 -15 -58 -25 -28 -26 -43 -90 -37 -159 5 -52
10 -63 49 -103 24 -24 70 -57 103 -74 99 -48 173 -59 430 -59 127 0 264 -5
305 -11 41 -6 116 -11 165 -10 72 2 114 -4 210 -29 95 -25 135 -31 194 -28 70
3 75 5 103 38 32 39 58 115 58 170 0 44 -39 86 -117 124 -78 39 -334 88 -588
111 -77 7 -222 25 -322 39 -183 26 -407 34 -495 16z"/>
<path d="M1670 4111 l-1005 -787 -7 81 c-3 44 -7 370 -7 725 -1 355 -4 662 -7
683 l-7 37 -318 0 -319 0 0 -1867 0 -1866 242 6 c133 4 281 7 330 7 l88 0 0
668 0 667 114 88 115 87 1078 -806 c593 -444 1083 -810 1089 -815 7 -6 79 70
213 227 112 129 201 237 199 239 -1 1 -282 217 -623 480 -341 262 -799 615
-1017 783 l-398 307 23 21 c12 12 375 308 807 659 432 351 796 648 809 661
l24 23 -207 240 c-114 133 -208 241 -209 240 -1 0 -454 -355 -1007 -788z"/>
<path d="M4603 3548 c3 -1132 5 -1282 20 -1353 63 -306 166 -506 366 -706 162
-161 326 -262 557 -342 319 -111 721 -131 1094 -56 237 48 497 155 645 266
258 193 446 499 514 838 19 96 20 153 27 1363 l7 1262 -319 -6 c-175 -3 -325
-7 -331 -10 -10 -3 -13 -139 -14 -636 0 -348 -4 -921 -8 -1273 l-7 -640 -32
-88 c-93 -264 -336 -435 -692 -488 -96 -14 -380 -14 -487 0 -270 35 -559 254
-653 496 -23 59 -24 70 -31 520 -4 253 -10 835 -14 1293 l-8 832 -319 0 -319
0 4 -1272z"/>
<path d="M9520 2945 l0 -1865 98 0 c53 0 195 -3 314 -7 l218 -6 2 1330 3 1331
205 -226 c182 -202 760 -832 916 -1001 l59 -64 343 386 c357 403 725 809 784
865 l35 33 6 -437 c4 -241 7 -837 7 -1326 l0 -888 320 0 320 0 0 1870 0 1870
-279 0 -279 0 -79 -87 c-44 -49 -323 -366 -621 -705 -298 -339 -546 -619 -551
-622 -5 -3 -287 313 -627 702 l-619 707 -287 3 -288 2 0 -1865z"/>
<path d="M22147 4763 c-3 -5 -8 -844 -12 -1865 l-8 -1858 312 0 311 0 2 1299
3 1299 1144 -1304 1144 -1304 279 0 278 0 0 1855 0 1855 -310 0 -310 0 -2
-1306 -3 -1307 -181 204 c-272 308 -604 689 -1294 1489 -344 398 -668 774
-721 835 l-95 110 -266 3 c-147 1 -269 -1 -271 -5z"/>
</g>
</svg>
